<svg class="svg-path" width="44" height="51" viewBox="0 0 44 51" fill="none" xmlns="http://www.w3.org/2000/svg">
<path stroke="white"  d="M12.5916 0.953125C12.118 0.953125 11.6638 1.14126 11.3289 1.47615C10.994 1.81103 10.8059 2.26524 10.8059 2.73884V42.5317C10.8059 43.0053 10.994 43.4595 11.3289 43.7943C11.6638 44.1292 12.118 44.3174 12.5916 44.3174C13.0652 44.3174 13.5194 44.1292 13.8543 43.7943C14.1892 43.4595 14.3773 43.0053 14.3773 42.5317V29.0281C15.647 29.2638 16.9095 29.3781 18.163 29.3781C21.3988 29.3781 24.5791 28.7227 27.6916 28.0799C32.5077 27.087 37.0541 26.1513 41.5148 27.6085C41.783 27.6965 42.0682 27.7198 42.3471 27.6763C42.626 27.6328 42.8906 27.5238 43.1192 27.3582C43.3479 27.1927 43.534 26.9753 43.6623 26.7239C43.7907 26.4725 43.8576 26.1943 43.8577 25.912V6.34062C43.8575 5.96428 43.7385 5.5976 43.5175 5.29295C43.2965 4.98829 42.985 4.76124 42.6273 4.64419C37.2612 2.88705 32.0327 3.96562 26.972 5.01026C22.597 5.91205 18.447 6.74776 14.3773 5.80312V2.73884C14.3773 2.26524 14.1892 1.81103 13.8543 1.47615C13.5194 1.14126 13.0652 0.953125 12.5916 0.953125ZM27.6934 8.50847C32.063 7.60848 36.2166 6.75133 40.2862 7.69419V23.6174C35.7416 22.7745 31.2934 23.6906 26.972 24.5817C22.597 25.4852 18.4416 26.3424 14.3773 25.396V9.47276C18.9273 10.3192 23.3702 9.40133 27.6934 8.50847Z" fill="#0095DA"/>
<path stroke="white"  d="M6.49877 39.4211C6.87244 39.1399 7.12104 38.7235 7.19125 38.2611C7.26146 37.7988 7.14768 37.3273 6.87432 36.9479C6.60096 36.5685 6.18979 36.3113 5.72901 36.2315C5.26822 36.1517 4.79451 36.2556 4.40948 36.5211C2.19341 38.1193 0.971985 40.2514 0.971985 42.5246C0.971985 46.1246 3.96305 49.2353 8.59698 50.4496C9.88805 50.7835 11.2345 50.9532 12.597 50.9532C13.9595 50.9532 15.3452 50.7782 16.6041 50.4478C21.2202 49.2389 24.2041 46.1264 24.2041 42.5246C24.2041 40.23 22.9845 38.1032 20.7755 36.5336C20.3896 36.2589 19.9103 36.1488 19.4431 36.2275C18.9759 36.3062 18.5592 36.5672 18.2845 36.9532C18.0098 37.3392 17.8997 37.8185 17.9784 38.2856C18.0571 38.7528 18.3181 39.1696 18.7041 39.4443C19.9488 40.3264 20.6327 41.4211 20.6327 42.5246C20.6327 44.4228 18.6505 46.2211 15.697 46.9943C13.6619 47.5051 11.5321 47.5051 9.49698 46.9943C6.53269 46.2175 4.54341 44.4211 4.54341 42.5246C4.54341 41.0478 5.76841 39.9461 6.49877 39.4211Z" fill="#0095DA"/>
</svg>
