<svg width="54" height="54" viewBox="0 0 54 54" fill="none" xmlns="http://www.w3.org/2000/svg">
<path  fill="#0095DA" d="M34.8293 40.2307C35.5334 40.935 36.4884 41.3306 37.4843 41.3307C39.5568 41.3307 41.2401 39.6483 41.2401 37.5749C41.2401 36.5791 40.8442 35.6241 40.1401 34.9199C38.6742 33.454 38.6742 31.0741 40.1401 29.6082C41.6059 28.1431 41.6059 25.7631 40.1401 24.2974C38.6742 22.8315 38.6742 20.4515 40.1401 18.9865C41.6059 17.5206 41.6059 15.1406 40.1401 13.6748C38.6742 12.2098 38.6742 9.82981 40.1401 8.36404C40.4889 8.01528 40.7655 7.60123 40.9543 7.14554C41.143 6.68985 41.2401 6.20145 41.2401 5.70822C41.2401 3.6356 39.5568 1.95312 37.4843 1.95312C36.4884 1.95312 35.5334 2.34898 34.8293 3.05313C33.3634 4.51817 30.9834 4.51817 29.5176 3.05313C28.0518 1.58725 25.6725 1.58725 24.2067 3.05313C22.7409 4.51817 20.3609 4.51817 18.895 3.05313C17.43 1.58725 15.05 1.58725 13.5842 3.05313C12.1183 4.51817 9.73918 4.51817 8.2734 3.05313C7.56891 2.34889 6.6136 1.95323 5.61748 1.95312C3.54497 1.95313 1.86166 3.6356 1.86166 5.70812C1.86163 6.20134 1.95875 6.68975 2.14749 7.14544C2.33623 7.60113 2.61289 8.01517 2.96167 8.36393C4.42754 9.82981 4.42754 12.2098 2.96167 13.6747C1.49662 15.1406 1.49662 17.5206 2.96167 18.9864C4.42754 20.4514 4.42754 22.8314 2.96167 24.2973C1.49662 25.7632 1.49662 28.1431 2.96167 29.6081C4.42754 31.074 4.42754 33.4539 2.96167 34.9198C2.25745 35.624 1.86177 36.579 1.86166 37.5749C1.86166 39.6483 3.54497 41.3307 5.61748 41.3307C6.61334 41.3307 7.56915 40.9349 8.2733 40.2307C9.73907 38.7648 12.1182 38.7648 13.5841 40.2307C15.0499 41.6966 17.43 41.6966 18.8949 40.2307C20.3608 38.7648 22.7408 38.7648 24.2066 40.2307C25.6724 41.6966 28.0517 41.6966 29.5175 40.2307C30.9832 38.7648 33.3634 38.765 34.8293 40.2307Z" stroke="white" stroke-width="2.5" stroke-miterlimit="10" stroke-linecap="round" stroke-linejoin="round"/>
<path  fill="#0095DA" d="M13.5842 40.2306C15.05 41.6965 15.05 44.0764 13.5842 45.5414C12.8801 46.2459 12.4845 47.2011 12.4842 48.1972C12.4842 50.2697 14.1675 51.953 16.24 51.953C17.2359 51.953 18.1909 51.5572 18.895 50.853C20.3609 49.3871 22.7409 49.3871 24.2068 50.853C25.6725 52.3189 28.0518 52.3189 29.5176 50.853C30.9833 49.3871 33.3634 49.3871 34.8293 50.853C36.2943 52.3189 38.6742 52.3189 40.1401 50.853C41.6059 49.3871 43.9851 49.3871 45.4509 50.853C46.1553 51.5573 47.1106 51.9529 48.1067 51.953C50.1793 51.9531 51.8618 50.2698 51.8618 48.1973C51.8618 47.2014 51.4668 46.2465 50.7626 45.5415C49.2968 44.0764 49.2968 41.6965 50.7626 40.2307C52.2277 38.7648 52.2277 36.3848 50.7626 34.9199C49.2968 33.454 49.2968 31.074 50.7626 29.6081C52.2277 28.1431 52.2277 25.7631 50.7626 24.2973C49.2968 22.8315 49.2968 20.4515 50.7626 18.9864C51.4667 18.2819 51.862 17.3266 51.8618 16.3306C51.8618 14.2581 50.1793 12.5748 48.1068 12.5748C47.111 12.5748 46.1552 12.9706 45.451 13.6748C43.9852 15.1407 41.606 15.1407 40.1402 13.6748M2.96167 34.9198L34.8293 3.05298M8.27341 40.2306L40.1401 8.36389M2.96167 24.2972L24.2068 3.05298M18.9509 40.2864L40.1951 19.0414M2.96167 13.6755L13.5842 3.05298M29.5176 40.2306L40.1401 29.608" stroke="white" stroke-width="2.5" stroke-miterlimit="10" stroke-linecap="round" stroke-linejoin="round"/>
</svg>
