<svg width="87" height="35" viewBox="0 0 87 35" fill="none" xmlns="http://www.w3.org/2000/svg">
<path d="M0.59198 26.9999V0.179932H5.48798V22.6799H16.972V26.9999H0.59198ZM29.3189 27.4319C27.3989 27.4319 25.6469 26.9879 24.0629 26.0999C22.5029 25.2119 21.2549 23.9999 20.3189 22.4639C19.4069 20.9279 18.9509 19.1759 18.9509 17.2079C18.9509 15.2399 19.4069 13.4879 20.3189 11.9519C21.2549 10.4159 22.5029 9.20393 24.0629 8.31593C25.6229 7.42793 27.3749 6.98393 29.3189 6.98393C31.2389 6.98393 32.9789 7.42793 34.5389 8.31593C36.0989 9.20393 37.3349 10.4159 38.2469 11.9519C39.1829 13.4639 39.6509 15.2159 39.6509 17.2079C39.6509 19.1759 39.1829 20.9279 38.2469 22.4639C37.3109 23.9999 36.0629 25.2119 34.5029 26.0999C32.9429 26.9879 31.2149 27.4319 29.3189 27.4319ZM29.3189 23.1119C30.3749 23.1119 31.2989 22.8599 32.0909 22.3559C32.9069 21.8519 33.5429 21.1559 33.9989 20.2679C34.4789 19.3559 34.7189 18.3359 34.7189 17.2079C34.7189 16.0559 34.4789 15.0479 33.9989 14.1839C33.5429 13.2959 32.9069 12.5999 32.0909 12.0959C31.2989 11.5679 30.3749 11.3039 29.3189 11.3039C28.2389 11.3039 27.2909 11.5679 26.4749 12.0959C25.6589 12.5999 25.0109 13.2959 24.5309 14.1839C24.0749 15.0479 23.8469 16.0559 23.8469 17.2079C23.8469 18.3359 24.0749 19.3559 24.5309 20.2679C25.0109 21.1559 25.6589 21.8519 26.4749 22.3559C27.2909 22.8599 28.2389 23.1119 29.3189 23.1119ZM52.7313 34.9199C51.2673 34.9199 49.9113 34.6799 48.6633 34.1999C47.4153 33.7199 46.3353 33.0479 45.4233 32.1839C44.5353 31.3439 43.8873 30.3479 43.4793 29.1959L47.8713 27.5399C48.1593 28.4519 48.7233 29.1839 49.5633 29.7359C50.4273 30.3119 51.4833 30.5999 52.7313 30.5999C53.6913 30.5999 54.5313 30.4199 55.2513 30.0599C55.9953 29.6999 56.5713 29.1719 56.9793 28.4759C57.3873 27.8039 57.5913 26.9879 57.5913 26.0279V21.5639L58.4913 22.6439C57.8193 23.8199 56.9193 24.7079 55.7913 25.3079C54.6633 25.9079 53.3793 26.2079 51.9393 26.2079C50.1153 26.2079 48.4833 25.7879 47.0433 24.9479C45.6033 24.1079 44.4753 22.9559 43.6593 21.4919C42.8433 20.0279 42.4353 18.3839 42.4353 16.5599C42.4353 14.7119 42.8433 13.0679 43.6593 11.6279C44.4753 10.1879 45.5913 9.05993 47.0073 8.24393C48.4233 7.40393 50.0313 6.98393 51.8313 6.98393C53.2953 6.98393 54.5793 7.29593 55.6833 7.91993C56.8113 8.51993 57.7473 9.39593 58.4913 10.5479L57.8433 11.7359V7.41593H62.3073V26.0279C62.3073 27.7319 61.8873 29.2559 61.0473 30.5999C60.2313 31.9439 59.1033 32.9999 57.6633 33.7679C56.2473 34.5359 54.6033 34.9199 52.7313 34.9199ZM52.5153 21.8519C53.5233 21.8519 54.3993 21.6359 55.1433 21.2039C55.9113 20.7479 56.5113 20.1239 56.9433 19.3319C57.3753 18.5399 57.5913 17.6279 57.5913 16.5959C57.5913 15.5879 57.3633 14.6879 56.9073 13.8959C56.4753 13.0799 55.8753 12.4439 55.1073 11.9879C54.3633 11.5319 53.4993 11.3039 52.5153 11.3039C51.5313 11.3039 50.6433 11.5319 49.8513 11.9879C49.0593 12.4439 48.4353 13.0799 47.9793 13.8959C47.5473 14.6879 47.3313 15.5879 47.3313 16.5959C47.3313 17.6039 47.5473 18.5039 47.9793 19.2959C48.4353 20.0879 49.0473 20.7119 49.8153 21.1679C50.6073 21.6239 51.5073 21.8519 52.5153 21.8519ZM76.2876 27.4319C74.3676 27.4319 72.6156 26.9879 71.0316 26.0999C69.4716 25.2119 68.2236 23.9999 67.2876 22.4639C66.3756 20.9279 65.9196 19.1759 65.9196 17.2079C65.9196 15.2399 66.3756 13.4879 67.2876 11.9519C68.2236 10.4159 69.4716 9.20393 71.0316 8.31593C72.5916 7.42793 74.3436 6.98393 76.2876 6.98393C78.2076 6.98393 79.9476 7.42793 81.5076 8.31593C83.0676 9.20393 84.3036 10.4159 85.2156 11.9519C86.1516 13.4639 86.6196 15.2159 86.6196 17.2079C86.6196 19.1759 86.1516 20.9279 85.2156 22.4639C84.2796 23.9999 83.0316 25.2119 81.4716 26.0999C79.9116 26.9879 78.1836 27.4319 76.2876 27.4319ZM76.2876 23.1119C77.3436 23.1119 78.2676 22.8599 79.0596 22.3559C79.8756 21.8519 80.5116 21.1559 80.9676 20.2679C81.4476 19.3559 81.6876 18.3359 81.6876 17.2079C81.6876 16.0559 81.4476 15.0479 80.9676 14.1839C80.5116 13.2959 79.8756 12.5999 79.0596 12.0959C78.2676 11.5679 77.3436 11.3039 76.2876 11.3039C75.2076 11.3039 74.2596 11.5679 73.4436 12.0959C72.6276 12.5999 71.9796 13.2959 71.4996 14.1839C71.0436 15.0479 70.8156 16.0559 70.8156 17.2079C70.8156 18.3359 71.0436 19.3559 71.4996 20.2679C71.9796 21.1559 72.6276 21.8519 73.4436 22.3559C74.2596 22.8599 75.2076 23.1119 76.2876 23.1119Z" fill="#111111"/>
</svg>
