<svg width="45" height="51" viewBox="0 0 45 51" fill="none" xmlns="http://www.w3.org/2000/svg">
<path d="M27.2739 22.8281C25.1106 22.8281 22.996 22.1867 21.1973 20.9848C19.3987 19.783 17.9968 18.0748 17.1689 16.0762C16.3411 14.0777 16.1245 11.8785 16.5465 9.75683C16.9686 7.63516 18.0103 5.68629 19.5399 4.15665C21.0695 2.62701 23.0184 1.58532 25.1401 1.16329C27.2617 0.741265 29.4609 0.957864 31.4595 1.7857C33.458 2.61353 35.1662 4.01542 36.3681 5.81408C37.5699 7.61274 38.2114 9.7274 38.2114 11.8906C38.2081 14.7904 37.0547 17.5705 35.0042 19.621C32.9537 21.6714 30.1737 22.8248 27.2739 22.8281ZM27.2739 4.07813C25.7287 4.07813 24.2182 4.53632 22.9335 5.39477C21.6487 6.25322 20.6474 7.47337 20.0561 8.90091C19.4647 10.3285 19.31 11.8993 19.6115 13.4148C19.9129 14.9302 20.657 16.3223 21.7496 17.4149C22.8422 18.5075 24.2342 19.2516 25.7497 19.553C27.2652 19.8545 28.836 19.6997 30.2636 19.1084C31.6911 18.5171 32.9113 17.5158 33.7697 16.231C34.6282 14.9463 35.0864 13.4358 35.0864 11.8906C35.0839 9.81939 34.26 7.83369 32.7954 6.3691C31.3308 4.90451 29.3451 4.08061 27.2739 4.07813Z" fill="#0095DA"/>
<path d="M42.8989 50.9531H11.6489C11.2345 50.9531 10.837 50.7885 10.544 50.4955C10.251 50.2025 10.0864 49.805 10.0864 49.3906V49.1719C10.0864 48.8961 10.1595 48.6252 10.2981 48.3868C10.4367 48.1484 10.6359 47.9509 10.8756 47.8144C11.1152 47.6779 11.3867 47.6073 11.6625 47.6097C11.9383 47.6121 12.2085 47.6875 12.4457 47.8281H41.3364V35.7187C41.3322 32.3012 39.9728 29.0248 37.5562 26.6083C35.1397 24.1917 31.8633 22.8323 28.4457 22.8281H26.102C23.1199 22.8277 20.2299 23.8608 17.9239 25.7516C17.6033 26.0068 17.1952 26.1258 16.7877 26.0831C16.3802 26.0403 16.0057 25.8392 15.7451 25.523C15.4844 25.2068 15.3584 24.8009 15.3942 24.3927C15.43 23.9845 15.6247 23.6066 15.9364 23.3406C18.8021 20.9886 22.3947 19.7031 26.102 19.7031H28.4457C32.6919 19.7077 36.7629 21.3965 39.7655 24.399C42.768 27.4015 44.4568 31.4725 44.4614 35.7187V49.3906C44.4614 49.805 44.2967 50.2025 44.0037 50.4955C43.7107 50.7885 43.3133 50.9531 42.8989 50.9531Z" fill="#0095DA"/>
<path d="M35.0864 50.9531C34.672 50.9531 34.2745 50.7885 33.9815 50.4955C33.6885 50.2025 33.5239 49.805 33.5239 49.3906V33.7656C33.5239 33.3512 33.6885 32.9538 33.9815 32.6608C34.2745 32.3677 34.672 32.2031 35.0864 32.2031C35.5008 32.2031 35.8982 32.3677 36.1912 32.6608C36.4842 32.9538 36.6489 33.3512 36.6489 33.7656V49.3906C36.6489 49.805 36.4842 50.2025 36.1912 50.4955C35.8982 50.7885 35.5008 50.9531 35.0864 50.9531ZM19.4614 50.9531C19.047 50.9531 18.6495 50.7885 18.3565 50.4955C18.0635 50.2025 17.8989 49.805 17.8989 49.3906V46.5625C17.8989 46.1481 18.0635 45.7507 18.3565 45.4576C18.6495 45.1646 19.047 45 19.4614 45C19.8758 45 20.2732 45.1646 20.5662 45.4576C20.8592 45.7507 21.0239 46.1481 21.0239 46.5625V49.3906C21.0239 49.805 20.8592 50.2025 20.5662 50.4955C20.2732 50.7885 19.8758 50.9531 19.4614 50.9531Z" fill="#0095DA"/>
<path d="M12.7364 50.9531C12.659 50.9532 12.5817 50.948 12.5051 50.9375C11.2082 50.7406 4.59887 49.4906 1.83168 43.9891C1.04159 42.4076 0.657645 40.6544 0.714492 38.8875V26.5391C0.714107 26.2071 0.819675 25.8837 1.01583 25.6158C1.21199 25.348 1.4885 25.1498 1.80512 25.05L12.2645 21.7438C12.5715 21.646 12.9013 21.646 13.2082 21.7438L23.6676 25.05C23.9842 25.1498 24.2607 25.348 24.4569 25.6158C24.6531 25.8837 24.7586 26.2071 24.7582 26.5391V38.9281C24.8112 40.681 24.4279 42.4195 23.6426 43.9875C20.877 49.4875 14.2661 50.7406 12.9692 50.9359C12.8921 50.947 12.8143 50.9528 12.7364 50.9531ZM3.83949 27.6828V38.9281C3.79203 40.1942 4.06166 41.4521 4.62387 42.5875C6.57699 46.4703 11.4911 47.5828 12.7364 47.8062C13.9817 47.5828 18.8973 46.4703 20.8504 42.5875C21.4085 41.4646 21.6781 40.2204 21.6348 38.9672V27.6828L12.7364 24.8703L3.83949 27.6828Z" fill="#0095DA"/>
<path d="M12.0942 40.1061C11.889 40.1063 11.6857 40.066 11.4961 39.9874C11.3066 39.9089 11.1344 39.7936 10.9895 39.6483L7.76448 36.4217C7.47986 36.127 7.32237 35.7324 7.32593 35.3227C7.32949 34.913 7.49381 34.5211 7.78351 34.2314C8.07321 33.9417 8.46511 33.7774 8.87479 33.7738C9.28447 33.7703 9.67916 33.9277 9.97385 34.2124L12.0942 36.3327L17.0754 31.353C17.2196 31.2038 17.392 31.0847 17.5826 31.0028C17.7732 30.9209 17.9783 30.8778 18.1857 30.876C18.3932 30.8742 18.5989 30.9138 18.791 30.9923C18.983 31.0709 19.1574 31.1869 19.3042 31.3336C19.4509 31.4803 19.5669 31.6548 19.6454 31.8468C19.724 32.0388 19.7635 32.2446 19.7617 32.4521C19.7599 32.6595 19.7168 32.8646 19.6349 33.0552C19.5531 33.2458 19.434 33.4182 19.2848 33.5624L13.1989 39.6483C13.054 39.7937 12.8818 39.909 12.6922 39.9875C12.5026 40.0661 12.2994 40.1064 12.0942 40.1061Z" fill="#0095DA"/>
</svg>
