<svg width="47" height="51" viewBox="0 0 47 51" fill="none" xmlns="http://www.w3.org/2000/svg">
<path stroke="white" d="M23.1668 10.084H23.1165C19.0544 10.084 15.2306 11.6679 12.348 14.5454C10.9211 15.9616 9.78954 17.647 9.01908 19.5039C8.24862 21.3608 7.85456 23.3522 7.85976 25.3625C7.85976 29.2921 9.35305 33.0186 12.0645 35.8558C13.4235 37.2787 14.1718 39.037 14.1718 40.8072V42.0958C14.1718 43.8542 15.6031 45.2837 17.3598 45.2837H28.9185C30.6769 45.2837 32.1064 43.8542 32.1064 42.0958V40.8072C32.1064 39.0354 32.8547 37.277 34.2138 35.8542C36.919 33.0321 38.426 29.2718 38.4185 25.3625C38.4237 23.3522 38.0296 21.3608 37.2592 19.5039C36.4887 17.647 35.3572 15.9616 33.9302 14.5454C32.5197 13.1277 30.8423 12.0035 28.9949 11.2378C27.1475 10.472 25.1666 10.0799 23.1668 10.084ZM32.0309 33.7669C30.1316 35.7552 29.0846 38.2535 29.0846 40.8055V42.0941C29.0846 42.1161 29.0803 42.1379 29.0718 42.1583C29.0634 42.1786 29.051 42.1971 29.0355 42.2127C29.0199 42.2283 29.0014 42.2407 28.981 42.2491C28.9607 42.2575 28.9388 42.2619 28.9168 42.2619H17.3581C17.3361 42.2619 17.3142 42.2575 17.2939 42.2491C17.2735 42.2407 17.255 42.2283 17.2394 42.2127C17.2239 42.1971 17.2115 42.1786 17.2031 42.1583C17.1946 42.1379 17.1903 42.1161 17.1903 42.0941V40.8055C17.1903 38.2535 16.1433 35.7535 14.244 33.7669C12.0777 31.5053 10.8714 28.4926 10.8782 25.3609C10.8782 22.0823 12.1567 19.0001 14.4789 16.6813C15.6112 15.5438 16.9576 14.6418 18.4405 14.0275C19.9233 13.4133 21.5131 13.0989 23.1182 13.1025H23.1584C26.4151 13.1025 29.4822 14.3726 31.7927 16.6813C32.9375 17.8177 33.8453 19.1701 34.4633 20.66C35.0814 22.15 35.3975 23.7478 35.3933 25.3609C35.4033 28.4926 34.1979 31.506 32.0309 33.7669Z" fill="#0095DA"/>
<path stroke="white" d="M21.0578 17.0454C19.5437 17.4205 18.1615 18.2036 17.0613 19.3093C15.9612 20.4151 15.1852 21.8013 14.8178 23.3172C14.7649 23.5117 14.7515 23.7149 14.7784 23.9147C14.8053 24.1145 14.8719 24.3069 14.9743 24.4805C15.0767 24.6542 15.2129 24.8055 15.3747 24.9257C15.5365 25.0459 15.7208 25.1325 15.9167 25.1803C16.1125 25.2281 16.3159 25.2363 16.5149 25.2043C16.714 25.1722 16.9046 25.1007 17.0755 24.9938C17.2464 24.8869 17.3943 24.7469 17.5102 24.582C17.6262 24.4171 17.7079 24.2307 17.7507 24.0337C17.9953 23.0563 18.4996 22.1632 19.2102 21.449C19.9209 20.7348 20.8115 20.226 21.7876 19.9766C22.1763 19.8798 22.5107 19.6326 22.7171 19.2893C22.9235 18.946 22.9851 18.5348 22.8883 18.1461C22.7915 17.7574 22.5443 17.423 22.201 17.2166C21.8577 17.0102 21.4465 16.9486 21.0578 17.0454ZM27.2574 47.933H19.0192C18.6187 47.933 18.2346 48.0921 17.9514 48.3753C17.6682 48.6585 17.5091 49.0426 17.5091 49.4431C17.5091 49.8436 17.6682 50.2276 17.9514 50.5108C18.2346 50.794 18.6187 50.9531 19.0192 50.9531H27.2574C27.6579 50.9531 28.042 50.794 28.3252 50.5108C28.6084 50.2276 28.7675 49.8436 28.7675 49.4431C28.7675 49.0426 28.6084 48.6585 28.3252 48.3753C28.042 48.0921 27.6579 47.933 27.2574 47.933ZM23.1383 6.92964C23.5388 6.92964 23.9229 6.77054 24.2061 6.48735C24.4893 6.20415 24.6484 5.82006 24.6484 5.41957V2.46319C24.6484 2.0627 24.4893 1.67861 24.2061 1.39541C23.9229 1.11222 23.5388 0.953125 23.1383 0.953125C22.7378 0.953125 22.3537 1.11222 22.0705 1.39541C21.7873 1.67861 21.6282 2.0627 21.6282 2.46319V5.41957C21.6282 5.82006 21.7873 6.20415 22.0705 6.48735C22.3537 6.77054 22.7378 6.92964 23.1383 6.92964ZM44.64 20.7669H41.6836C41.2831 20.7669 40.899 20.926 40.6158 21.2092C40.3326 21.4924 40.1735 21.8765 40.1735 22.277C40.1735 22.6774 40.3326 23.0615 40.6158 23.3447C40.899 23.6279 41.2831 23.787 41.6836 23.787H44.64C45.0405 23.787 45.4246 23.6279 45.7077 23.3447C45.9909 23.0615 46.15 22.6774 46.15 22.277C46.15 21.8765 45.9909 21.4924 45.7077 21.2092C45.4246 20.926 45.0405 20.7669 44.64 20.7669ZM4.59131 20.7669H1.63661C1.23611 20.7669 0.852022 20.926 0.56883 21.2092C0.285637 21.4924 0.126541 21.8765 0.126541 22.277C0.126541 22.6774 0.285637 23.0615 0.56883 23.3447C0.852022 23.6279 1.23611 23.787 1.63661 23.787H4.59298C4.99348 23.7868 5.37748 23.6275 5.66052 23.3441C5.94355 23.0608 6.10243 22.6766 6.10221 22.2761C6.10199 21.8756 5.94268 21.4916 5.65933 21.2086C5.37598 20.9255 4.9918 20.7667 4.59131 20.7669ZM10.15 11.4246C10.29 11.5657 10.4564 11.6778 10.6399 11.7542C10.8233 11.8306 11.0201 11.87 11.2188 11.87C11.4176 11.87 11.6143 11.8306 11.7978 11.7542C11.9812 11.6778 12.1477 11.5657 12.2876 11.4246C12.428 11.2846 12.5395 11.1183 12.6155 10.9352C12.6915 10.7521 12.7306 10.5558 12.7306 10.3575C12.7306 10.1592 12.6915 9.9629 12.6155 9.77978C12.5395 9.59666 12.428 9.43035 12.2876 9.29037L10.1953 7.19809C10.0563 7.05288 9.88971 6.93688 9.70528 6.8569C9.52084 6.77693 9.3223 6.73458 9.12128 6.73235C8.92027 6.73011 8.72083 6.76804 8.53467 6.8439C8.3485 6.91976 8.17936 7.03203 8.03715 7.17412C7.89495 7.31622 7.78255 7.48527 7.70654 7.67138C7.63054 7.85748 7.59245 8.05689 7.59453 8.25791C7.5966 8.45892 7.63879 8.6575 7.71862 8.842C7.79846 9.02649 7.91432 9.19319 8.05943 9.33232L10.15 11.4246ZM36.0812 7.19809L33.9906 9.2887C33.778 9.49934 33.6329 9.76857 33.5738 10.062C33.5148 10.3555 33.5445 10.6599 33.6592 10.9364C33.7738 11.2129 33.9683 11.449 34.2177 11.6145C34.467 11.7801 34.7601 11.8676 35.0594 11.8659C35.258 11.8662 35.4547 11.8272 35.6381 11.7512C35.8215 11.6752 35.9881 11.5636 36.1282 11.4229L38.2188 9.33232C38.8094 8.74339 38.8094 7.78702 38.2188 7.19809C37.6282 6.60917 36.6702 6.60917 36.0812 7.19809Z" fill="#0095DA"/>
</svg>
